<mxfile host="app.diagrams.net" modified="2024-08-28T00:20:44.097Z" agent="Mozilla/5.0 (Windows NT 10.0; Win64; x64) AppleWebKit/537.36 (KHTML, like Gecko) Chrome/122.0.0.0 Safari/537.36" etag="pQUCB4EeV6LIzaL8BhLU" version="24.2.5" type="device">
  <diagram name="Page-1" id="rrjxVjxWeASpSvDcVRon">
    <mxGraphModel dx="881" dy="416" grid="1" gridSize="10" guides="1" tooltips="1" connect="1" arrows="1" fold="1" page="1" pageScale="1" pageWidth="850" pageHeight="1100" math="0" shadow="0">
      <root>
        <mxCell id="0" />
        <mxCell id="1" parent="0" />
        <mxCell id="z8qq3TGNzai60wx8T0TJ-9" style="edgeStyle=orthogonalEdgeStyle;rounded=0;orthogonalLoop=1;jettySize=auto;html=1;exitX=1;exitY=0.5;exitDx=0;exitDy=0;entryX=0;entryY=0.5;entryDx=0;entryDy=0;" edge="1" parent="1" source="z8qq3TGNzai60wx8T0TJ-1" target="z8qq3TGNzai60wx8T0TJ-2">
          <mxGeometry relative="1" as="geometry" />
        </mxCell>
        <mxCell id="z8qq3TGNzai60wx8T0TJ-1" value="Grayscale Image" style="rounded=1;whiteSpace=wrap;html=1;fillColor=#CCFFFF;" vertex="1" parent="1">
          <mxGeometry x="170" y="150" width="120" height="60" as="geometry" />
        </mxCell>
        <mxCell id="z8qq3TGNzai60wx8T0TJ-10" style="edgeStyle=orthogonalEdgeStyle;rounded=0;orthogonalLoop=1;jettySize=auto;html=1;exitX=1;exitY=0.5;exitDx=0;exitDy=0;entryX=0;entryY=0.5;entryDx=0;entryDy=0;" edge="1" parent="1" source="z8qq3TGNzai60wx8T0TJ-2" target="z8qq3TGNzai60wx8T0TJ-3">
          <mxGeometry relative="1" as="geometry" />
        </mxCell>
        <mxCell id="z8qq3TGNzai60wx8T0TJ-2" value="Calculate Gradient (Using Sobel Kernel)" style="rounded=1;whiteSpace=wrap;html=1;fillColor=#CCFFE6;" vertex="1" parent="1">
          <mxGeometry x="320" y="150" width="120" height="60" as="geometry" />
        </mxCell>
        <mxCell id="z8qq3TGNzai60wx8T0TJ-11" style="edgeStyle=orthogonalEdgeStyle;rounded=0;orthogonalLoop=1;jettySize=auto;html=1;exitX=0.5;exitY=1;exitDx=0;exitDy=0;entryX=0.5;entryY=0;entryDx=0;entryDy=0;" edge="1" parent="1" source="z8qq3TGNzai60wx8T0TJ-3" target="z8qq3TGNzai60wx8T0TJ-4">
          <mxGeometry relative="1" as="geometry" />
        </mxCell>
        <mxCell id="z8qq3TGNzai60wx8T0TJ-3" value="Blur Image &lt;br&gt;(Using 3x3 Kernel)" style="rounded=1;whiteSpace=wrap;html=1;fillColor=#CCFFFF;" vertex="1" parent="1">
          <mxGeometry x="470" y="150" width="120" height="60" as="geometry" />
        </mxCell>
        <mxCell id="z8qq3TGNzai60wx8T0TJ-12" style="edgeStyle=orthogonalEdgeStyle;rounded=0;orthogonalLoop=1;jettySize=auto;html=1;entryX=1;entryY=0.5;entryDx=0;entryDy=0;" edge="1" parent="1" source="z8qq3TGNzai60wx8T0TJ-4" target="z8qq3TGNzai60wx8T0TJ-5">
          <mxGeometry relative="1" as="geometry" />
        </mxCell>
        <mxCell id="z8qq3TGNzai60wx8T0TJ-4" value="Binary Threshold" style="rounded=1;whiteSpace=wrap;html=1;fillColor=#CCFFE6;" vertex="1" parent="1">
          <mxGeometry x="470" y="230" width="120" height="60" as="geometry" />
        </mxCell>
        <mxCell id="z8qq3TGNzai60wx8T0TJ-13" style="edgeStyle=orthogonalEdgeStyle;rounded=0;orthogonalLoop=1;jettySize=auto;html=1;entryX=1;entryY=0.5;entryDx=0;entryDy=0;" edge="1" parent="1" source="z8qq3TGNzai60wx8T0TJ-5" target="z8qq3TGNzai60wx8T0TJ-6">
          <mxGeometry relative="1" as="geometry" />
        </mxCell>
        <mxCell id="z8qq3TGNzai60wx8T0TJ-5" value="Morphology" style="rounded=1;whiteSpace=wrap;html=1;fillColor=#CCFFFF;" vertex="1" parent="1">
          <mxGeometry x="320" y="230" width="120" height="60" as="geometry" />
        </mxCell>
        <mxCell id="z8qq3TGNzai60wx8T0TJ-14" style="edgeStyle=orthogonalEdgeStyle;rounded=0;orthogonalLoop=1;jettySize=auto;html=1;exitX=0.5;exitY=1;exitDx=0;exitDy=0;entryX=0.5;entryY=0;entryDx=0;entryDy=0;" edge="1" parent="1" source="z8qq3TGNzai60wx8T0TJ-6" target="z8qq3TGNzai60wx8T0TJ-7">
          <mxGeometry relative="1" as="geometry" />
        </mxCell>
        <mxCell id="z8qq3TGNzai60wx8T0TJ-6" value="Erosion &amp;amp; Dilation" style="rounded=1;whiteSpace=wrap;html=1;fillColor=#CCFFE6;" vertex="1" parent="1">
          <mxGeometry x="170" y="230" width="120" height="60" as="geometry" />
        </mxCell>
        <mxCell id="z8qq3TGNzai60wx8T0TJ-15" style="edgeStyle=orthogonalEdgeStyle;rounded=0;orthogonalLoop=1;jettySize=auto;html=1;exitX=1;exitY=0.5;exitDx=0;exitDy=0;entryX=0;entryY=0.5;entryDx=0;entryDy=0;" edge="1" parent="1" source="z8qq3TGNzai60wx8T0TJ-7" target="z8qq3TGNzai60wx8T0TJ-8">
          <mxGeometry relative="1" as="geometry" />
        </mxCell>
        <mxCell id="z8qq3TGNzai60wx8T0TJ-7" value="Find &#39;k&#39; Biggest Contours" style="rounded=1;whiteSpace=wrap;html=1;fillColor=#CCFFFF;" vertex="1" parent="1">
          <mxGeometry x="170" y="310" width="120" height="60" as="geometry" />
        </mxCell>
        <mxCell id="z8qq3TGNzai60wx8T0TJ-8" value="Output Image" style="rounded=1;whiteSpace=wrap;html=1;fillColor=#CCFFE6;" vertex="1" parent="1">
          <mxGeometry x="320" y="310" width="120" height="60" as="geometry" />
        </mxCell>
        <mxCell id="z8qq3TGNzai60wx8T0TJ-16" value="&lt;font style=&quot;font-size: 18px;&quot;&gt;Binary Detector Flow Diagram&lt;/font&gt;" style="text;html=1;align=center;verticalAlign=middle;resizable=0;points=[];autosize=1;strokeColor=none;fillColor=none;" vertex="1" parent="1">
          <mxGeometry x="250" y="113" width="260" height="40" as="geometry" />
        </mxCell>
      </root>
    </mxGraphModel>
  </diagram>
</mxfile>
